<?xml version="1.0" standalone="no"?><!DOCTYPE svg PUBLIC "-//W3C//DTD SVG 1.1//EN" "http://www.w3.org/Graphics/SVG/1.1/DTD/svg11.dtd"><svg t="1591544055941" class="icon" viewBox="0 0 1024 1024" version="1.1" xmlns="http://www.w3.org/2000/svg" p-id="1372" xmlns:xlink="http://www.w3.org/1999/xlink" width="200" height="200"><defs><style type="text/css"></style></defs><path d="M66.7 512.7c0 246.5 199.8 446.4 446.3 446.4s446.4-199.8 446.4-446.3v-0.1c0-246.5-199.8-446.4-446.3-446.4S66.7 266.1 66.7 512.7c0-0.1 0 0 0 0z" fill="#455098" p-id="1373"></path><path d="M511.4 261.1c112.4 0 203.9 88.9 203.9 198.1-0.5 40.7-13 79.5-36.4 112.3l-0.6 1c-1 1.6-2.2 3.5-3.8 5.3L542 750.1c-7.4 9.6-18.7 15.2-31 15.2s-23.6-5.5-31-15.2L347.4 577.8c-2-2.3-3.3-4.5-4.2-5.9-23.6-33-36.2-72.1-36.2-112.7 0.5-109.3 92.2-198.1 204.4-198.1z m0.5 103.6c-50.8 0-92.1 41.3-92.1 92.1s41.3 92.1 92.1 92.1 92.1-41.3 92.1-92.1c0.1-50.8-41.3-92.1-92.1-92.1z m0 45.7c25.6 0 46.5 20.9 46.5 46.5s-20.9 46.5-46.5 46.5-46.5-20.9-46.5-46.5c0.1-25.6 20.9-46.5 46.5-46.5z m0 0" fill="#FFFFFF" p-id="1374"></path></svg>