<?xml version="1.0" standalone="no"?><!DOCTYPE svg PUBLIC "-//W3C//DTD SVG 1.1//EN" "http://www.w3.org/Graphics/SVG/1.1/DTD/svg11.dtd"><svg t="1591544043379" class="icon" viewBox="0 0 1024 1024" version="1.1" xmlns="http://www.w3.org/2000/svg" p-id="1237" xmlns:xlink="http://www.w3.org/1999/xlink" width="200" height="200"><defs><style type="text/css"></style></defs><path d="M511.3 512.2m-447.3 0a447.3 447.3 0 1 0 894.6 0 447.3 447.3 0 1 0-894.6 0Z" fill="#455098" p-id="1238"></path><path d="M767.5 353.2s-1.6 0 0 0l-52.7 35.2c-139 94.3-209.4 142.2-209.4 140.6l-211-143.8-38.4-24v-9.6c0-17.6 14.4-32 32-32h447.5c17.6 0.1 32 14.5 32 33.6 0-1.6 0-1.6 0 0z m0 38.4v279.7c0 17.6-14.4 32-32 32H288c-17.6 0-32-14.4-32-32V399.6l19.2 12.8 211 143.8c11.2 8 25.6 8 36.8 0l209.4-140.6c1.5-1.6 12.7-9.6 35.1-24z m0 0" fill="#FFFFFF" p-id="1239"></path></svg>